# xmcd
# 
# Track frame offsets:
#     150
#     16700
#     37457
#     54062
#     72787
#     88887
#     107025
#     125280
#     139075
#     152742
# 
# Disc length: 2277
# 
# Revision: 5
# Processed by: cddbd v1.5.2PL0 Copyright (c) Steve Scherf et al.
# Submitted via: BonkEnc v1.0.8
# 
DISCID=7f08e30a
DTITLE=Kenny Rogers - The Heart of the Matter
DYEAR=1985
DGENRE=Country
TTITLE0=I Don't Want To Have To Worry
TTITLE1=The Heart Of The Matter
TTITLE2=You Made Me Feel Love
TTITLE3=Morning Desire
TTITLE4=Don't Look In My Eyes
TTITLE5=The Best Of Me
TTITLE6=Tomb Of The Unknown Love
TTITLE7=People In Love
TTITLE8=I Can't Believe Your Eyes
TTITLE9=Our Perfect Song
EXTD=YEAR: 1985
EXTT0=
EXTT1=
EXTT2=
EXTT3=
EXTT4=
EXTT5=
EXTT6=
EXTT7=
EXTT8=
EXTT9=
PLAYORDER=
